<svg xmlns="http://www.w3.org/2000/svg" width="1200" height="760" viewBox="0 0 1200 760" role="img" aria-label="EDA Desastres R">
<defs>
<linearGradient id="bg" x1="0%" y1="0%" x2="100%" y2="100%">
<stop offset="0%" stop-color="#0f172a"/>
<stop offset="100%" stop-color="#1d4ed8"/>
</linearGradient>
<filter id="shadow" x="-20%" y="-20%" width="140%" height="140%">
<feDropShadow dx="0" dy="10" stdDeviation="10" flood-color="#020617" flood-opacity="0.20"/>
</filter>
</defs>
<rect width="1200" height="760" fill="url(#bg)"/>
<circle cx="1020" cy="130" r="170" fill="#60a5fa" opacity="0.18"/>
<circle cx="160" cy="610" r="210" fill="#22c55e" opacity="0.12"/>
<text x="70" y="80" fill="#ffffff" font-size="42" font-family="Arial, sans-serif" font-weight="800">EDA Desastres R</text>
<text x="72" y="122" fill="#bfdbfe" font-size="22" font-family="Arial, sans-serif">CSV · Validación · Resumen · Gráfica · PDF</text>
<rect x="470" y="165" width="260" height="76" rx="18" fill="#dbeafe" filter="url(#shadow)"/>
<text x="600" y="213" text-anchor="middle" fill="#0f172a" font-size="22" font-family="Arial, sans-serif" font-weight="800">Archivo CSV</text>
<line x1="600" y1="251" x2="600" y2="315" stroke="#bfdbfe" stroke-width="6" stroke-linecap="round"/>
<polygon points="588,307 612,307 600,327" fill="#bfdbfe"/>
<rect x="470" y="257" width="260" height="76" rx="18" fill="#e0f2fe" filter="url(#shadow)"/>
<text x="600" y="305" text-anchor="middle" fill="#0f172a" font-size="22" font-family="Arial, sans-serif" font-weight="800">Validación columnas</text>
<line x1="600" y1="343" x2="600" y2="407" stroke="#bfdbfe" stroke-width="6" stroke-linecap="round"/>
<polygon points="588,399 612,399 600,419" fill="#bfdbfe"/>
<rect x="470" y="349" width="260" height="76" rx="18" fill="#dcfce7" filter="url(#shadow)"/>
<text x="600" y="397" text-anchor="middle" fill="#0f172a" font-size="22" font-family="Arial, sans-serif" font-weight="800">Resumen anual</text>
<line x1="600" y1="435" x2="600" y2="499" stroke="#bfdbfe" stroke-width="6" stroke-linecap="round"/>
<polygon points="588,491 612,491 600,511" fill="#bfdbfe"/>
<rect x="470" y="441" width="260" height="76" rx="18" fill="#fef3c7" filter="url(#shadow)"/>
<text x="600" y="489" text-anchor="middle" fill="#0f172a" font-size="22" font-family="Arial, sans-serif" font-weight="800">Visualización temporal</text>
<line x1="600" y1="527" x2="600" y2="591" stroke="#bfdbfe" stroke-width="6" stroke-linecap="round"/>
<polygon points="588,583 612,583 600,603" fill="#bfdbfe"/>
<rect x="470" y="533" width="260" height="76" rx="18" fill="#fce7f3" filter="url(#shadow)"/>
<text x="600" y="581" text-anchor="middle" fill="#0f172a" font-size="22" font-family="Arial, sans-serif" font-weight="800">Reporte PDF</text>
<text x="70" y="718" fill="#dbeafe" font-size="18" font-family="Arial, sans-serif">Arquitectura de integración tecnológica · Reemplaza este SVG por tu diagrama final si lo deseas</text>
</svg>