<svg xmlns="http://www.w3.org/2000/svg" width="1600" height="1000" viewBox="0 0 1600 1000">
  <defs>
    <linearGradient id="g" x1="0%" y1="0%" x2="100%" y2="100%">
      <stop offset="0%" stop-color="#0f172a"/>
      <stop offset="55%" stop-color="#1e3a8a"/>
      <stop offset="100%" stop-color="#2563eb"/>
    </linearGradient>
  </defs>
  <rect width="1600" height="1000" fill="url(#g)"/>
  <g opacity="0.18" fill="none" stroke="#93c5fd" stroke-width="2">
    <path d="M120 220 C380 120, 520 380, 780 260 S1190 190, 1480 320"/>
    <path d="M80 700 C380 530, 540 790, 810 610 S1190 540, 1520 740"/>
    <path d="M220 120 L380 300 L590 190 L780 420 L990 240 L1240 420 L1460 210"/>
  </g>
  <g opacity="0.22" fill="#ffffff">
    <circle cx="260" cy="240" r="8"/>
    <circle cx="380" cy="300" r="8"/>
    <circle cx="590" cy="190" r="8"/>
    <circle cx="780" cy="420" r="8"/>
    <circle cx="990" cy="240" r="8"/>
    <circle cx="1240" cy="420" r="8"/>
    <circle cx="1460" cy="210" r="8"/>
  </g>
  <g opacity="0.12">
    <rect x="1080" y="130" width="360" height="230" rx="32" fill="#ffffff"/>
    <rect x="980" y="520" width="420" height="260" rx="36" fill="#ffffff"/>
    <rect x="170" y="570" width="300" height="210" rx="32" fill="#ffffff"/>
  </g>
</svg>
